<?xml version="1.0" encoding="UTF-8" standalone="no" ?>
<COLLADA xmlns="http://www.collada.org/2005/11/COLLADASchema" version="1.4.1">
  <asset>
    <contributor>
      <author>Assimp</author>
      <authoring_tool>Assimp Exporter</authoring_tool>
    </contributor>
    <created>2026-09-03T00:11:31</created>
    <modified>2026-09-03T00:11:31</modified>
    <unit name="meter" meter="1" />
    <up_axis>Y_UP</up_axis>
  </asset>
  <library_images>
    <image id="colormap-diffuse-image">
      <init_from>colormap.png</init_from>
    </image>
  </library_images>
  <library_effects>
    <effect id="DefaultMaterial-fx" name="DefaultMaterial">
      <profile_COMMON>
        <technique sid="standard">
          <phong>
            <emission>
              <color sid="emission">0   0   0   1</color>
            </emission>
            <ambient>
              <color sid="ambient">0.6 0.6 0.6 1</color>
            </ambient>
            <diffuse>
              <color sid="diffuse">0.600000024   0.600000024   0.600000024   1</color>
            </diffuse>
            <specular>
              <color sid="specular">0   0   0   1</color>
            </specular>
            <shininess>
              <float sid="shininess">0</float>
            </shininess>
            <transparent>
              <color sid="transparent">1   1   1   1</color>
            </transparent>
            <transparency>
              <float sid="transparency">1</float>
            </transparency>
            <index_of_refraction>
              <float sid="index_of_refraction">1</float>
            </index_of_refraction>
          </phong>
        </technique>
      </profile_COMMON>
    </effect>
    <effect id="colormap-fx" name="colormap">
      <profile_COMMON>
        <newparam sid="colormap-diffuse-surface">
          <surface type="2D">
            <init_from>colormap-diffuse-image</init_from>
          </surface>
        </newparam>
        <newparam sid="colormap-diffuse-sampler">
          <sampler2D>
            <source>colormap-diffuse-surface</source>
          </sampler2D>
        </newparam>
        <technique sid="standard">
          <phong>
            <emission>
              <color sid="emission">0   0   0   1</color>
            </emission>
            <ambient>
              <color sid="ambient">0.6 0.6 0.6 1</color>
            </ambient>
            <diffuse>
              <texture texture="colormap-diffuse-sampler" texcoord="CHANNEL0" />
            </diffuse>
            <specular>
              <color sid="specular">0   0   0   1</color>
            </specular>
            <shininess>
              <float sid="shininess">0</float>
            </shininess>
            <transparent>
              <color sid="transparent">1   1   1   1</color>
            </transparent>
            <transparency>
              <float sid="transparency">1</float>
            </transparency>
            <index_of_refraction>
              <float sid="index_of_refraction">1</float>
            </index_of_refraction>
          </phong>
        </technique>
      </profile_COMMON>
    </effect>
  </library_effects>
  <library_materials>
    <material id="DefaultMaterial" name="DefaultMaterial">
      <instance_effect url="#DefaultMaterial-fx"/>
    </material>
    <material id="colormap" name="colormap">
      <instance_effect url="#colormap-fx"/>
    </material>
  </library_materials>
  <library_geometries>
    <geometry id="road-side_1" name="road-side" >
      <mesh>
        <source id="road-side_1-positions" name="road-side_1-positions">
          <float_array id="road-side_1-positions-array" count="792"> 0.5 0.0199999996 -0.709999979 -0.5 0.00999999978 -0.709999979 0.5 0.00999999978 -0.709999979 -0.5 0.00999999978 -0.709999979 0.5 0.0199999996 -0.709999979 -0.5 0.0199999996 -0.709999979 -0.5 0.0199999996 -0.809999883 0.5 -2.65076817e-16 -0.809999883 -0.5 -2.65076817e-16 -0.809999883 0.5 -2.65076817e-16 -0.809999883 -0.5 0.0199999996 -0.809999883 0.5 0.0199999996 -0.809999883 0.5 0.0199999996 0.5 -0.5 2.81996624e-18 0.5 0.5 2.81996624e-18 0.5 -0.5 2.81996624e-18 0.5 0.5 0.0199999996 0.5 -0.5 0.0199999996 0.5 -0.5 0.0199999996 0.400000006 0.5 0.00999999978 0.400000006 -0.5 0.00999999978 0.400000006 0.5 0.00999999978 0.400000006 -0.5 0.0199999996 0.400000006 0.5 0.0199999996 0.400000006 0.5 2.81996624e-18 0.5 -0.5 -2.65076817e-16 -0.809999883 0.5 -2.65076817e-16 -0.809999883 -0.5 -2.65076817e-16 -0.809999883 0.5 2.81996624e-18 0.5 -0.5 2.81996624e-18 0.5 -0.5 0.0199999996 -0.809999883 0.5 0.0199999996 -0.709999979 0.5 0.0199999996 -0.809999883 0.5 0.0199999996 -0.709999979 -0.5 0.0199999996 -0.809999883 -0.5 0.0199999996 -0.709999979 -0.5 0.0199999996 0.400000006 0.5 0.0199999996 0.5 0.5 0.0199999996 0.400000006 0.5 0.0199999996 0.5 -0.5 0.0199999996 0.400000006 -0.5 0.0199999996 0.5 0.5 0.0199999996 0.5 0.5 0.00999999978 0.400000006 0.5 0.0199999996 0.400000006 0.5 2.81996624e-18 0.5 0.5 0.00999999978 0.400000006 0.5 0.0199999996 0.5 0.5 2.81996624e-18 0.5 0.5 0.00999999978 0.300000012 0.5 0.00999999978 0.400000006 0.5 2.81996624e-18 0.5 0.5 0.00999999978 0.00999999978 0.5 0.00999999978 0.300000012 0.5 2.81996624e-18 0.5 0.5 0.00999999978 -0.00999999978 0.5 0.00999999978 0.00999999978 0.5 2.81996624e-18 0.5 0.5 0.00999999978 -0.610000014 0.5 0.00999999978 -0.00999999978 0.5 2.81996624e-18 0.5 0.5 0.00999999978 -0.709999979 0.5 0.00999999978 -0.610000014 0.5 -2.65076817e-16 -0.809999883 0.5 0.00999999978 -0.709999979 0.5 2.81996624e-18 0.5 0.5 -2.65076817e-16 -0.809999883 0.5 0.0199999996 -0.709999979 0.5 0.00999999978 -0.709999979 0.5 0.0199999996 -0.709999979 0.5 -2.65076817e-16 -0.809999883 0.5 0.0199999996 -0.809999883 -0.5 0.0199999996 0.400000006 -0.5 2.81996624e-18 0.5 -0.5 0.0199999996 0.5 -0.5 0.00999999978 0.400000006 -0.5 2.81996624e-18 0.5 -0.5 0.0199999996 0.400000006 -0.5 0.00999999978 0.300000012 -0.5 2.81996624e-18 0.5 -0.5 0.00999999978 0.400000006 -0.5 0.00999999978 0.00999999978 -0.5 2.81996624e-18 0.5 -0.5 0.00999999978 0.300000012 -0.5 0.00999999978 -0.00999999978 -0.5 2.81996624e-18 0.5 -0.5 0.00999999978 0.00999999978 -0.5 0.00999999978 -0.610000014 -0.5 2.81996624e-18 0.5 -0.5 0.00999999978 -0.00999999978 -0.5 0.00999999978 -0.709999979 -0.5 2.81996624e-18 0.5 -0.5 0.00999999978 -0.610000014 -0.5 0.00999999978 -0.709999979 -0.5 -2.65076817e-16 -0.809999883 -0.5 2.81996624e-18 0.5 -0.5 -2.65076817e-16 -0.809999883 -0.5 0.00999999978 -0.709999979 -0.5 0.0199999996 -0.809999883 -0.5 0.0199999996 -0.709999979 -0.5 0.0199999996 -0.809999883 -0.5 0.00999999978 -0.709999979 -0.5 0.00999999978 -0.610000014 0.5 0.00999999978 -0.00999997556 0.5 0.00999999978 -0.610000014 0.5 0.00999999978 -0.00999997556 -0.5 0.00999999978 -0.610000014 -0.5 0.00999999978 -0.00999997556 0.5 0.00999999978 0.0100000203 -0.5 0.00999999978 0.300000012 0.5 0.00999999978 0.300000012 -0.5 0.00999999978 0.300000012 0.5 0.00999999978 0.0100000203 -0.5 0.00999999978 0.0100000203 -0.5 0.00999999978 -0.00999999978 0.5 0.00999999978 0.00999999978 0.5 0.00999999978 -0.00999999978 0.5 0.00999999978 0.00999999978 -0.5 0.00999999978 -0.00999999978 -0.5 0.00999999978 0.00999999978 -0.5 0.00999999978 0.300000012 0.5 0.00999999978 0.400000006 0.5 0.00999999978 0.300000012 0.5 0.00999999978 0.400000006 -0.5 0.00999999978 0.300000012 -0.5 0.00999999978 0.400000006 -0.5 0.00999999978 -0.709999979 0.5 0.00999999978 -0.610000014 0.5 0.00999999978 -0.709999979 0.5 0.00999999978 -0.610000014 -0.5 0.00999999978 -0.709999979 -0.5 0.00999999978 -0.610000014 0.5 0.0199999996 -0.709999979 -0.5 0.00999999978 -0.709999979 0.5 0.00999999978 -0.709999979 -0.5 0.00999999978 -0.709999979 0.5 0.0199999996 -0.709999979 -0.5 0.0199999996 -0.709999979 -0.5 0.0199999996 -0.809999883 0.5 -2.65076817e-16 -0.809999883 -0.5 -2.65076817e-16 -0.809999883 0.5 -2.65076817e-16 -0.809999883 -0.5 0.0199999996 -0.809999883 0.5 0.0199999996 -0.809999883 0.5 0.0199999996 0.5 -0.5 2.81996624e-18 0.5 0.5 2.81996624e-18 0.5 -0.5 2.81996624e-18 0.5 0.5 0.0199999996 0.5 -0.5 0.0199999996 0.5 -0.5 0.0199999996 0.400000006 0.5 0.00999999978 0.400000006 -0.5 0.00999999978 0.400000006 0.5 0.00999999978 0.400000006 -0.5 0.0199999996 0.400000006 0.5 0.0199999996 0.400000006 0.5 2.81996624e-18 0.5 -0.5 -2.65076817e-16 -0.809999883 0.5 -2.65076817e-16 -0.809999883 -0.5 -2.65076817e-16 -0.809999883 0.5 2.81996624e-18 0.5 -0.5 2.81996624e-18 0.5 -0.5 0.0199999996 -0.809999883 0.5 0.0199999996 -0.709999979 0.5 0.0199999996 -0.809999883 0.5 0.0199999996 -0.709999979 -0.5 0.0199999996 -0.809999883 -0.5 0.0199999996 -0.709999979 -0.5 0.0199999996 0.400000006 0.5 0.0199999996 0.5 0.5 0.0199999996 0.400000006 0.5 0.0199999996 0.5 -0.5 0.0199999996 0.400000006 -0.5 0.0199999996 0.5 0.5 0.0199999996 0.5 0.5 0.00999999978 0.400000006 0.5 0.0199999996 0.400000006 0.5 2.81996624e-18 0.5 0.5 0.00999999978 0.400000006 0.5 0.0199999996 0.5 0.5 2.81996624e-18 0.5 0.5 0.00999999978 0.300000012 0.5 0.00999999978 0.400000006 0.5 2.81996624e-18 0.5 0.5 0.00999999978 0.00999999978 0.5 0.00999999978 0.300000012 0.5 2.81996624e-18 0.5 0.5 0.00999999978 -0.00999999978 0.5 0.00999999978 0.00999999978 0.5 2.81996624e-18 0.5 0.5 0.00999999978 -0.610000014 0.5 0.00999999978 -0.00999999978 0.5 2.81996624e-18 0.5 0.5 0.00999999978 -0.709999979 0.5 0.00999999978 -0.610000014 0.5 -2.65076817e-16 -0.809999883 0.5 0.00999999978 -0.709999979 0.5 2.81996624e-18 0.5 0.5 -2.65076817e-16 -0.809999883 0.5 0.0199999996 -0.709999979 0.5 0.00999999978 -0.709999979 0.5 0.0199999996 -0.709999979 0.5 -2.65076817e-16 -0.809999883 0.5 0.0199999996 -0.809999883 -0.5 0.0199999996 0.400000006 -0.5 2.81996624e-18 0.5 -0.5 0.0199999996 0.5 -0.5 0.00999999978 0.400000006 -0.5 2.81996624e-18 0.5 -0.5 0.0199999996 0.400000006 -0.5 0.00999999978 0.300000012 -0.5 2.81996624e-18 0.5 -0.5 0.00999999978 0.400000006 -0.5 0.00999999978 0.00999999978 -0.5 2.81996624e-18 0.5 -0.5 0.00999999978 0.300000012 -0.5 0.00999999978 -0.00999999978 -0.5 2.81996624e-18 0.5 -0.5 0.00999999978 0.00999999978 -0.5 0.00999999978 -0.610000014 -0.5 2.81996624e-18 0.5 -0.5 0.00999999978 -0.00999999978 -0.5 0.00999999978 -0.709999979 -0.5 2.81996624e-18 0.5 -0.5 0.00999999978 -0.610000014 -0.5 0.00999999978 -0.709999979 -0.5 -2.65076817e-16 -0.809999883 -0.5 2.81996624e-18 0.5 -0.5 -2.65076817e-16 -0.809999883 -0.5 0.00999999978 -0.709999979 -0.5 0.0199999996 -0.809999883 -0.5 0.0199999996 -0.709999979 -0.5 0.0199999996 -0.809999883 -0.5 0.00999999978 -0.709999979 -0.5 0.00999999978 -0.610000014 0.5 0.00999999978 -0.00999997556 0.5 0.00999999978 -0.610000014 0.5 0.00999999978 -0.00999997556 -0.5 0.00999999978 -0.610000014 -0.5 0.00999999978 -0.00999997556 0.5 0.00999999978 0.0100000203 -0.5 0.00999999978 0.300000012 0.5 0.00999999978 0.300000012 -0.5 0.00999999978 0.300000012 0.5 0.00999999978 0.0100000203 -0.5 0.00999999978 0.0100000203 -0.5 0.00999999978 -0.00999999978 0.5 0.00999999978 0.00999999978 0.5 0.00999999978 -0.00999999978 0.5 0.00999999978 0.00999999978 -0.5 0.00999999978 -0.00999999978 -0.5 0.00999999978 0.00999999978 -0.5 0.00999999978 0.300000012 0.5 0.00999999978 0.400000006 0.5 0.00999999978 0.300000012 0.5 0.00999999978 0.400000006 -0.5 0.00999999978 0.300000012 -0.5 0.00999999978 0.400000006 -0.5 0.00999999978 -0.709999979 0.5 0.00999999978 -0.610000014 0.5 0.00999999978 -0.709999979 0.5 0.00999999978 -0.610000014 -0.5 0.00999999978 -0.709999979 -0.5 0.00999999978 -0.610000014 </float_array>
          <technique_common>
            <accessor count="264" offset="0" source="#road-side_1-positions-array" stride="3">
              <param name="X" type="float" />
              <param name="Y" type="float" />
              <param name="Z" type="float" />
            </accessor>
          </technique_common>
        </source>
        <source id="road-side_1-normals" name="road-side_1-normals">
          <float_array id="road-side_1-normals-array" count="792"> 0 0 1 0 0 1 0 0 1 0 0 1 0 0 1 0 0 1 0 0 -1 0 0 -1 0 0 -1 0 0 -1 0 0 -1 0 0 -1 0 0 1 0 0 1 0 0 1 0 0 1 0 0 1 0 0 1 0 0 -1 0 0 -1 0 0 -1 0 0 -1 0 0 -1 0 0 -1 0 -1 0 0 -1 0 0 -1 0 0 -1 0 0 -1 0 0 -1 0 0 1 0 0 1 0 0 1 0 0 1 0 0 1 0 0 1 0 0 1 0 0 1 0 0 1 0 0 1 0 0 1 0 0 1 0 1 0 0 1 0 0 1 0 0 1 0 0 1 0 0 1 0 0 1 0 0 1 0 0 1 0 0 1 0 0 1 0 0 1 0 0 1 0 0 1 0 0 1 0 0 1 0 0 1 0 0 1 0 0 1 0 0 1 0 0 1 0 0 1 0 0 1 0 0 1 0 0 1 0 0 1 0 0 1 0 0 1 0 0 1 0 0 1 0 0 -1 0 0 -1 0 0 -1 0 0 -1 0 0 -1 0 0 -1 0 0 -1 0 0 -1 0 0 -1 0 0 -1 0 0 -1 0 0 -1 0 0 -1 0 0 -1 0 0 -1 0 0 -1 0 0 -1 0 0 -1 0 0 -1 0 0 -1 0 0 -1 0 0 -1 0 0 -1 0 0 -1 0 0 -1 0 0 -1 0 0 -1 0 0 -1 0 0 -1 0 0 -1 0 0 0 1 0 0 1 0 0 1 0 0 1 0 0 1 0 0 1 0 0 1 0 0 1 0 0 1 0 0 1 0 0 1 0 0 1 0 0 1 0 0 1 0 0 1 0 0 1 0 0 1 0 0 1 0 0 1 0 0 1 0 0 1 0 0 1 0 0 1 0 0 1 0 0 1 0 0 1 0 0 1 0 0 1 0 0 1 0 0 1 0 0 0 1 0 0 1 0 0 1 0 0 1 0 0 1 0 0 1 0 0 -1 0 0 -1 0 0 -1 0 0 -1 0 0 -1 0 0 -1 0 0 1 0 0 1 0 0 1 0 0 1 0 0 1 0 0 1 0 0 -1 0 0 -1 0 0 -1 0 0 -1 0 0 -1 0 0 -1 0 -1 0 0 -1 0 0 -1 0 0 -1 0 0 -1 0 0 -1 0 0 1 0 0 1 0 0 1 0 0 1 0 0 1 0 0 1 0 0 1 0 0 1 0 0 1 0 0 1 0 0 1 0 0 1 0 1 0 0 1 0 0 1 0 0 1 0 0 1 0 0 1 0 0 1 0 0 1 0 0 1 0 0 1 0 0 1 0 0 1 0 0 1 0 0 1 0 0 1 0 0 1 0 0 1 0 0 1 0 0 1 0 0 1 0 0 1 0 0 1 0 0 1 0 0 1 0 0 1 0 0 1 0 0 1 0 0 1 0 0 1 0 0 1 0 0 -1 0 0 -1 0 0 -1 0 0 -1 0 0 -1 0 0 -1 0 0 -1 0 0 -1 0 0 -1 0 0 -1 0 0 -1 0 0 -1 0 0 -1 0 0 -1 0 0 -1 0 0 -1 0 0 -1 0 0 -1 0 0 -1 0 0 -1 0 0 -1 0 0 -1 0 0 -1 0 0 -1 0 0 -1 0 0 -1 0 0 -1 0 0 -1 0 0 -1 0 0 -1 0 0 0 1 0 0 1 0 0 1 0 0 1 0 0 1 0 0 1 0 0 1 0 0 1 0 0 1 0 0 1 0 0 1 0 0 1 0 0 1 0 0 1 0 0 1 0 0 1 0 0 1 0 0 1 0 0 1 0 0 1 0 0 1 0 0 1 0 0 1 0 0 1 0 0 1 0 0 1 0 0 1 0 0 1 0 0 1 0 0 1 0 </float_array>
          <technique_common>
            <accessor count="264" offset="0" source="#road-side_1-normals-array" stride="3">
              <param name="X" type="float" />
              <param name="Y" type="float" />
              <param name="Z" type="float" />
            </accessor>
          </technique_common>
        </source>
        <source id="road-side_1-tex0" name="road-side_1-tex0">
          <float_array id="road-side_1-tex0-array" count="528"> 0.46875 0.474999994 0.46875 0.375 0.46875 0.375 0.46875 0.375 0.46875 0.474999994 0.46875 0.474999994 0.46875 0.474999994 0.46875 0.275000006 0.46875 0.275000006 0.46875 0.275000006 0.46875 0.474999994 0.46875 0.474999994 0.46875 0.474999994 0.46875 0.275000006 0.46875 0.275000006 0.46875 0.275000006 0.46875 0.474999994 0.46875 0.474999994 0.46875 0.474999994 0.46875 0.375 0.46875 0.375 0.46875 0.375 0.46875 0.474999994 0.46875 0.474999994 0.46875 0.275000006 0.46875 0.275000006 0.46875 0.275000006 0.46875 0.275000006 0.46875 0.275000006 0.46875 0.275000006 0.46875 0.474999994 0.46875 0.474999994 0.46875 0.474999994 0.46875 0.474999994 0.46875 0.474999994 0.46875 0.474999994 0.46875 0.474999994 0.46875 0.474999994 0.46875 0.474999994 0.46875 0.474999994 0.46875 0.474999994 0.46875 0.474999994 0.34375 0.224999994 0.34375 0.125 0.34375 0.224999994 0.34375 0.0250000004 0.34375 0.125 0.34375 0.224999994 0.34375 0.0250000004 0.34375 0.125 0.34375 0.125 0.34375 0.0250000004 0.34375 0.125 0.34375 0.125 0.34375 0.0250000004 0.34375 0.125 0.34375 0.125 0.34375 0.0250000004 0.34375 0.125 0.34375 0.125 0.34375 0.0250000004 0.34375 0.125 0.34375 0.125 0.34375 0.0250000004 0.34375 0.125 0.34375 0.0250000004 0.34375 0.0250000004 0.34375 0.224999994 0.34375 0.125 0.34375 0.224999994 0.34375 0.0250000004 0.34375 0.224999994 0.34375 0.224999994 0.34375 0.0250000004 0.34375 0.224999994 0.34375 0.125 0.34375 0.0250000004 0.34375 0.224999994 0.34375 0.125 0.34375 0.0250000004 0.34375 0.125 0.34375 0.125 0.34375 0.0250000004 0.34375 0.125 0.34375 0.125 0.34375 0.0250000004 0.34375 0.125 0.34375 0.125 0.34375 0.0250000004 0.34375 0.125 0.34375 0.125 0.34375 0.0250000004 0.34375 0.125 0.34375 0.125 0.34375 0.0250000004 0.34375 0.0250000004 0.34375 0.0250000004 0.34375 0.125 0.34375 0.224999994 0.34375 0.224999994 0.34375 0.224999994 0.34375 0.125 0.28125 0.125 0.28125 0.125 0.28125 0.125 0.28125 0.125 0.28125 0.125 0.28125 0.125 0.28125 0.125 0.28125 0.125 0.28125 0.125 0.28125 0.125 0.28125 0.125 0.28125 0.125 0.40625 0.125 0.40625 0.125 0.40625 0.125 0.40625 0.125 0.40625 0.125 0.40625 0.125 0.03125 0.125 0.03125 0.125 0.03125 0.125 0.03125 0.125 0.03125 0.125 0.03125 0.125 0.03125 0.125 0.03125 0.125 0.03125 0.125 0.03125 0.125 0.03125 0.125 0.03125 0.125 0.46875 0.474999994 0.46875 0.375 0.46875 0.375 0.46875 0.375 0.46875 0.474999994 0.46875 0.474999994 0.46875 0.474999994 0.46875 0.275000006 0.46875 0.275000006 0.46875 0.275000006 0.46875 0.474999994 0.46875 0.474999994 0.46875 0.474999994 0.46875 0.275000006 0.46875 0.275000006 0.46875 0.275000006 0.46875 0.474999994 0.46875 0.474999994 0.46875 0.474999994 0.46875 0.375 0.46875 0.375 0.46875 0.375 0.46875 0.474999994 0.46875 0.474999994 0.46875 0.275000006 0.46875 0.275000006 0.46875 0.275000006 0.46875 0.275000006 0.46875 0.275000006 0.46875 0.275000006 0.46875 0.474999994 0.46875 0.474999994 0.46875 0.474999994 0.46875 0.474999994 0.46875 0.474999994 0.46875 0.474999994 0.46875 0.474999994 0.46875 0.474999994 0.46875 0.474999994 0.46875 0.474999994 0.46875 0.474999994 0.46875 0.474999994 0.34375 0.224999994 0.34375 0.125 0.34375 0.224999994 0.34375 0.0250000004 0.34375 0.125 0.34375 0.224999994 0.34375 0.0250000004 0.34375 0.125 0.34375 0.125 0.34375 0.0250000004 0.34375 0.125 0.34375 0.125 0.34375 0.0250000004 0.34375 0.125 0.34375 0.125 0.34375 0.0250000004 0.34375 0.125 0.34375 0.125 0.34375 0.0250000004 0.34375 0.125 0.34375 0.125 0.34375 0.0250000004 0.34375 0.125 0.34375 0.0250000004 0.34375 0.0250000004 0.34375 0.224999994 0.34375 0.125 0.34375 0.224999994 0.34375 0.0250000004 0.34375 0.224999994 0.34375 0.224999994 0.34375 0.0250000004 0.34375 0.224999994 0.34375 0.125 0.34375 0.0250000004 0.34375 0.224999994 0.34375 0.125 0.34375 0.0250000004 0.34375 0.125 0.34375 0.125 0.34375 0.0250000004 0.34375 0.125 0.34375 0.125 0.34375 0.0250000004 0.34375 0.125 0.34375 0.125 0.34375 0.0250000004 0.34375 0.125 0.34375 0.125 0.34375 0.0250000004 0.34375 0.125 0.34375 0.125 0.34375 0.0250000004 0.34375 0.0250000004 0.34375 0.0250000004 0.34375 0.125 0.34375 0.224999994 0.34375 0.224999994 0.34375 0.224999994 0.34375 0.125 0.28125 0.125 0.28125 0.125 0.28125 0.125 0.28125 0.125 0.28125 0.125 0.28125 0.125 0.28125 0.125 0.28125 0.125 0.28125 0.125 0.28125 0.125 0.28125 0.125 0.28125 0.125 0.40625 0.125 0.40625 0.125 0.40625 0.125 0.40625 0.125 0.40625 0.125 0.40625 0.125 0.03125 0.125 0.03125 0.125 0.03125 0.125 0.03125 0.125 0.03125 0.125 0.03125 0.125 0.03125 0.125 0.03125 0.125 0.03125 0.125 0.03125 0.125 0.03125 0.125 0.03125 0.125 </float_array>
          <technique_common>
            <accessor count="264" offset="0" source="#road-side_1-tex0-array" stride="2">
              <param name="S" type="float" />
              <param name="T" type="float" />
            </accessor>
          </technique_common>
        </source>
        <source id="road-side_1-color0" name="road-side_1-color0">
          <float_array id="road-side_1-color0-array" count="792"> 1 1 1 1 1 1 1 1 1 1 1 1 1 1 1 1 1 1 1 1 1 1 1 1 1 1 1 1 1 1 1 1 1 1 1 1 1 1 1 1 1 1 1 1 1 1 1 1 1 1 1 1 1 1 1 1 1 1 1 1 1 1 1 1 1 1 1 1 1 1 1 1 1 1 1 1 1 1 1 1 1 1 1 1 1 1 1 1 1 1 1 1 1 1 1 1 1 1 1 1 1 1 1 1 1 1 1 1 1 1 1 1 1 1 1 1 1 1 1 1 1 1 1 1 1 1 1 1 1 1 1 1 1 1 1 1 1 1 1 1 1 1 1 1 1 1 1 1 1 1 1 1 1 1 1 1 1 1 1 1 1 1 1 1 1 1 1 1 1 1 1 1 1 1 1 1 1 1 1 1 1 1 1 1 1 1 1 1 1 1 1 1 1 1 1 1 1 1 1 1 1 1 1 1 1 1 1 1 1 1 1 1 1 1 1 1 1 1 1 1 1 1 1 1 1 1 1 1 1 1 1 1 1 1 1 1 1 1 1 1 1 1 1 1 1 1 1 1 1 1 1 1 1 1 1 1 1 1 1 1 1 1 1 1 1 1 1 1 1 1 1 1 1 1 1 1 1 1 1 1 1 1 1 1 1 1 1 1 1 1 1 1 1 1 1 1 1 1 1 1 1 1 1 1 1 1 1 1 1 1 1 1 1 1 1 1 1 1 1 1 1 1 1 1 1 1 1 1 1 1 1 1 1 1 1 1 1 1 1 1 1 1 1 1 1 1 1 1 1 1 1 1 1 1 1 1 1 1 1 1 1 1 1 1 1 1 1 1 1 1 1 1 1 1 1 1 1 1 1 1 1 1 1 1 1 1 1 1 1 1 1 1 1 1 1 1 1 1 1 1 1 1 1 1 1 1 1 1 1 1 1 1 1 1 1 1 1 1 1 1 1 1 1 1 1 1 1 1 1 1 1 1 1 1 1 1 1 1 1 1 1 1 1 1 1 1 1 1 1 1 1 1 1 1 1 1 1 1 1 1 1 1 1 1 1 1 1 1 1 1 1 1 1 1 1 1 1 1 1 1 1 1 1 1 1 1 1 1 1 1 1 1 1 1 1 1 1 1 1 1 1 1 1 1 1 1 1 1 1 1 1 1 1 1 1 1 1 1 1 1 1 1 1 1 1 1 1 1 1 1 1 1 1 1 1 1 1 1 1 1 1 1 1 1 1 1 1 1 1 1 1 1 1 1 1 1 1 1 1 1 1 1 1 1 1 1 1 1 1 1 1 1 1 1 1 1 1 1 1 1 1 1 1 1 1 1 1 1 1 1 1 1 1 1 1 1 1 1 1 1 1 1 1 1 1 1 1 1 1 1 1 1 1 1 1 1 1 1 1 1 1 1 1 1 1 1 1 1 1 1 1 1 1 1 1 1 1 1 1 1 1 1 1 1 1 1 1 1 1 1 1 1 1 1 1 1 1 1 1 1 1 1 1 1 1 1 1 1 1 1 1 1 1 1 1 1 1 1 1 1 1 1 1 1 1 1 1 1 1 1 1 1 1 1 1 1 1 1 1 1 1 1 1 1 1 1 1 1 1 1 1 1 1 1 1 1 1 1 1 1 1 1 1 1 1 1 1 1 1 1 1 1 1 1 1 1 1 1 1 1 1 1 1 1 1 1 1 1 1 1 1 1 1 1 1 1 1 1 1 1 1 1 1 1 1 1 1 1 1 1 1 1 1 1 1 1 1 1 1 1 1 1 1 1 1 1 1 1 1 1 1 1 </float_array>
          <technique_common>
            <accessor count="264" offset="0" source="#road-side_1-color0-array" stride="3">
              <param name="R" type="float" />
              <param name="G" type="float" />
              <param name="B" type="float" />
            </accessor>
          </technique_common>
        </source>
        <vertices id="road-side_1-vertices">
          <input semantic="POSITION" source="#road-side_1-positions" />
        </vertices>
        <polylist count="88" material="defaultMaterial">
          <input offset="0" semantic="VERTEX" source="#road-side_1-vertices" />
          <input offset="0" semantic="NORMAL" source="#road-side_1-normals" />
          <input offset="0" semantic="TEXCOORD" source="#road-side_1-tex0" set="0" />
          <input offset="0" semantic="COLOR" source="#road-side_1-color0" set="0" />
          <vcount>3 3 3 3 3 3 3 3 3 3 3 3 3 3 3 3 3 3 3 3 3 3 3 3 3 3 3 3 3 3 3 3 3 3 3 3 3 3 3 3 3 3 3 3 3 3 3 3 3 3 3 3 3 3 3 3 3 3 3 3 3 3 3 3 3 3 3 3 3 3 3 3 3 3 3 3 3 3 3 3 3 3 3 3 3 3 3 3 </vcount>
          <p>0 1 2 3 4 5 6 7 8 9 10 11 12 13 14 15 16 17 18 19 20 21 22 23 24 25 26 27 28 29 30 31 32 33 34 35 36 37 38 39 40 41 42 43 44 45 46 47 48 49 50 51 52 53 54 55 56 57 58 59 60 61 62 63 64 65 66 67 68 69 70 71 72 73 74 75 76 77 78 79 80 81 82 83 84 85 86 87 88 89 90 91 92 93 94 95 96 97 98 99 100 101 102 103 104 105 106 107 108 109 110 111 112 113 114 115 116 117 118 119 120 121 122 123 124 125 126 127 128 129 130 131 132 133 134 135 136 137 138 139 140 141 142 143 144 145 146 147 148 149 150 151 152 153 154 155 156 157 158 159 160 161 162 163 164 165 166 167 168 169 170 171 172 173 174 175 176 177 178 179 180 181 182 183 184 185 186 187 188 189 190 191 192 193 194 195 196 197 198 199 200 201 202 203 204 205 206 207 208 209 210 211 212 213 214 215 216 217 218 219 220 221 222 223 224 225 226 227 228 229 230 231 232 233 234 235 236 237 238 239 240 241 242 243 244 245 246 247 248 249 250 251 252 253 254 255 256 257 258 259 260 261 262 263 </p>
        </polylist>
      </mesh>
    </geometry>
  </library_geometries>
  <library_controllers>
  </library_controllers>
  <library_visual_scenes>
    <visual_scene id="road-side.obj" name="road-side.obj">
      <node id="road-side" name="road-side" type="NODE">
        <matrix sid="matrix">1 0 0 0 0 1 0 0 0 0 1 0 0 0 0 1</matrix>
        <instance_geometry url="#road-side_1">
          <bind_material>
            <technique_common>
              <instance_material symbol="defaultMaterial" target="#colormap">
                <bind_vertex_input semantic="CHANNEL0" input_semantic="TEXCOORD" input_set="0"/>
              </instance_material>
            </technique_common>
          </bind_material>
        </instance_geometry>
      </node>
    </visual_scene>
  </library_visual_scenes>
  <scene>
    <instance_visual_scene url="#road-side.obj" />
  </scene>
</COLLADA>
